# xmcd
#
# Track frame offsets:
#	150
#	13738
#	31070
#	45743
#	62312
#	78762
#	94450
#	107552
#	126012
#	144443
#	166059
#	183920
#	205822
#
# Disc length: 2921 seconds
#
# Revision: 2
# Processed by: cddbd v1.5.2PL0 Copyright (c) Steve Scherf et al.
# Submitted via: audiograbber 1.83.01
#
DISCID=9b0b670d
DTITLE=Reba McEntire - Keep On Loving You
DYEAR=2009
DGENRE=Country
TTITLE0=Strange
TTITLE1=Just When I Thought I'd Stopped Loving You
TTITLE2=I Keep On Lovin' You
TTITLE3=I Want A Cowboy
TTITLE4=Consider Me Gone
TTITLE5=But Why
TTITLE6=Pink Guitar
TTITLE7=She's Turning 50 Today
TTITLE8=Eight Crazy Hours (In The Story Of Love)
TTITLE9=Nothing To Lose
TTITLE10=Over You
TTITLE11=Maggie Creek Road
TTITLE12=I'll Have What She's Having
EXTD=
EXTT0=
EXTT1=
EXTT2=
EXTT3=
EXTT4=
EXTT5=
EXTT6=
EXTT7=
EXTT8=
EXTT9=
EXTT10=
EXTT11=
EXTT12=
PLAYORDER=
